<?xml version="1.0" encoding="utf-8"?>
<svg viewBox="39.4165 45.0275 1319.6309 727.0189" width="1319.631" height="727.019" xmlns="http://www.w3.org/2000/svg">
  <path fill="#929292" opacity="1.000000" stroke="none" d=" M811.654297,240.909424 C802.468506,255.148758 793.197998,269.334351 784.118164,283.640930 C772.669922,301.679199 761.489746,319.888031 749.985962,337.890381 C738.491028,355.878967 727.155701,373.991638 715.011597,391.538666 C691.516174,425.487335 667.934692,459.393829 643.542908,492.698303 C628.514709,513.217834 612.386902,532.987122 595.898560,552.366455 C579.942810,571.119873 563.263123,589.298035 546.202698,607.057739 C533.295166,620.494263 519.648193,633.281433 505.690094,645.634216 C482.122559,666.491333 457.392761,685.904297 430.748108,702.780273 C407.088837,717.765564 382.329254,730.653076 356.607025,741.661926 C334.403290,751.164856 311.547333,758.741699 287.726959,763.066345 C274.061157,765.547424 260.341736,767.738037 246.629883,769.957153 C243.230255,770.507324 239.772171,770.858643 236.330856,770.960693 C222.231873,771.378662 208.084061,772.537354 194.037109,771.814026 C166.675491,770.404846 140.077576,764.982788 114.725624,754.017883 C96.731743,746.235413 80.535179,735.988586 67.145424,721.602966 C53.006184,706.412170 43.907555,688.936462 40.794086,668.016724 C37.296589,644.516663 40.813175,621.915894 47.350117,599.655640 C51.516113,585.469116 59.106285,572.803345 69.506927,562.086853 C71.526390,560.006042 74.075134,558.308350 76.652237,556.951477 C78.056602,556.212097 80.033234,556.559692 81.751785,556.417053 C81.687233,558.249084 82.240250,560.436707 81.431908,561.840454 C79.646828,564.940613 77.384918,567.839233 74.944580,570.474792 C68.658485,577.263794 65.798424,585.276367 64.937950,594.396790 C62.358074,621.741516 72.297882,645.579651 86.561798,667.637634 C99.233109,687.232727 117.177689,701.652405 137.458130,713.253723 C159.305130,725.751160 182.973190,732.407715 207.474442,737.134644 C228.598816,741.210022 249.886230,741.854187 271.162079,740.838806 C306.020020,739.175232 338.374756,729.000732 368.725220,711.395142 C388.604614,699.863708 407.687134,687.304871 425.877686,673.398499 C436.315247,665.419006 446.046509,656.481201 455.792236,647.640259 C467.139130,637.346863 478.708038,627.209106 489.191284,616.072510 C507.628479,596.486267 526.122009,576.852051 543.117554,556.034180 C566.412354,527.500366 588.860962,498.232300 610.671387,468.543732 C627.866760,445.137207 644.030151,420.929657 659.785889,396.519012 C680.216309,364.865875 700.156738,332.880920 719.623535,300.625671 C738.787964,268.871216 757.179810,236.648407 775.748230,204.537186 C785.737671,187.261917 795.391479,169.792480 805.178467,152.400391 C805.960449,151.010696 806.599426,149.540558 807.431519,147.850555 C794.173523,143.556808 781.416626,139.328369 768.597107,135.299286 C754.159485,130.761658 739.721313,126.210823 725.185120,122.005325 C688.447815,111.376801 651.789368,100.433037 614.829224,90.634659 C595.959290,85.632111 576.597473,82.257317 557.290771,79.204224 C542.870056,76.923798 528.194275,76.170143 513.608093,75.049652 C502.097382,74.165428 490.519135,72.904137 479.025543,73.320251 C456.563965,74.133469 434.158386,75.532890 411.918640,79.746185 C386.894531,84.486961 362.200439,90.089119 338.277710,98.903549 C308.314209,109.943756 280.117065,124.129379 255.568588,144.899567 C235.664047,161.740570 218.455017,180.951126 206.554947,204.240265 C198.620468,219.768570 193.007645,236.364029 191.075943,253.849930 C189.648758,266.768768 188.010269,279.789093 188.217819,292.736115 C188.580566,315.365051 190.897507,337.902466 199.032120,359.325134 C203.767975,371.797150 210.848190,382.968414 222.610519,389.746521 C228.343277,393.050049 235.400787,394.124268 241.934296,395.934631 C244.582321,396.668335 247.523849,396.361908 250.153580,397.135040 C251.612473,397.563965 252.703705,399.243317 253.960632,400.359070 C252.588272,401.552704 251.279434,403.677765 249.832413,403.776459 C244.000504,404.174164 237.977585,404.794678 232.293015,403.800903 C208.940872,399.718567 188.631393,389.191925 171.996323,372.338470 C157.544510,357.696991 149.238373,339.815491 146.992004,319.251007 C143.461823,286.933929 148.149231,255.668945 160.297134,225.698166 C166.747406,209.784348 175.605103,194.972672 186.786865,181.793030 C194.796677,172.352066 202.770264,162.803284 211.577652,154.133194 C226.696152,139.250336 243.652542,126.458733 262.155792,116.156601 C279.766998,106.351120 297.935516,97.461861 316.260315,89.043312 C341.776123,77.321167 368.675751,69.360718 395.873749,62.668739 C411.995514,58.702034 428.412018,55.820148 444.803162,53.094933 C459.644318,50.627415 474.619202,48.939800 489.559357,47.105537 C494.955658,46.443005 500.417572,46.196823 505.857758,46.032661 C519.954956,45.607273 534.080139,44.672256 548.150696,45.169556 C564.911926,45.761951 581.661865,47.309700 598.353516,49.049728 C613.321106,50.610039 628.258301,52.659035 643.104736,55.120811 C654.340271,56.983829 665.481873,59.554127 676.541260,62.307785 C699.277710,67.968903 721.951355,73.886551 744.613464,79.840950 C772.308777,87.117805 799.963318,94.549492 827.646057,101.874413 C829.026611,102.239723 830.507324,102.226364 832.163086,102.414505 C837.224426,91.811188 845.812622,87.079506 857.606201,86.889557 C868.648071,86.711716 879.693176,85.865875 890.703003,84.919556 C896.812866,84.394402 902.376526,82.429619 906.170959,76.831306 C907.506226,74.861244 910.005859,73.120796 912.298279,72.526176 C914.338623,71.996941 917.411377,72.540222 918.905579,73.870987 C919.846802,74.709366 919.448120,78.356949 918.406006,79.908409 C910.861389,91.140823 902.998657,102.159538 895.239563,113.247948 C894.591125,114.174667 893.964355,115.116623 892.783447,116.472275 C880.367920,134.935455 868.406372,152.919434 856.647400,171.034912 C841.564514,194.271133 826.644470,217.613052 811.654297,240.909424 z" transform="matrix(1, 0, 0, 1, 1.4210854715202004e-14, 0)"/>
  <path fill="#00A533" opacity="1.000000" stroke="none" d=" M811.772949,241.302368 C826.644470,217.613052 841.564514,194.271133 856.647400,171.034912 C868.406372,152.919434 880.367920,134.935455 892.524414,116.673050 C900.365295,117.963448 907.872375,119.828651 915.492004,120.874527 C921.854370,121.747833 928.373413,122.157150 934.775879,121.834335 C939.412109,121.600571 944.001099,119.943626 948.554626,118.712105 C952.081421,117.758255 955.520630,116.480545 959.132141,115.303322 C960.950745,120.673340 959.333313,123.988434 955.995422,126.341789 C944.295410,134.590881 932.840088,143.281921 920.573303,150.600754 C911.683777,155.904602 901.350647,158.331284 890.882935,158.939636 C882.865906,159.405548 882.874146,159.173981 880.883118,167.034058 C875.191284,189.504211 869.054993,211.871887 863.871765,234.458466 C855.243774,272.056213 847.075134,309.761688 839.010620,347.485382 C835.337891,364.665955 831.889038,381.924530 829.255249,399.286774 C827.377502,411.665100 826.832336,424.263245 826.059143,436.785950 C825.425537,447.048950 824.642456,457.381165 825.173950,467.617889 C825.845154,480.544159 826.752441,493.426636 831.722290,505.872467 C838.704895,523.358826 851.349548,526.090515 865.606201,523.505127 C880.822937,520.745605 893.481628,512.080383 905.434753,502.858398 C920.567566,491.183380 935.392578,479.065155 949.795715,466.502106 C962.280273,455.612488 974.183838,444.031311 985.989807,432.396210 C997.648254,420.906647 1008.858948,408.962952 1020.272217,397.224457 C1032.214111,384.942322 1044.264526,372.763885 1056.084717,360.365845 C1072.688843,342.949890 1089.229736,325.471130 1105.598267,307.834076 C1118.673462,293.745605 1131.694214,279.591980 1144.295288,265.081848 C1158.337402,248.912476 1172.059204,232.455399 1185.589478,215.853653 C1201.629395,196.172333 1217.666992,176.470581 1233.054565,156.281418 C1247.718506,137.041763 1261.497314,117.129066 1275.757568,97.579453 C1283.554321,86.891022 1291.523438,76.324814 1302.226807,68.244316 C1308.084351,63.822216 1314.289062,62.681805 1321.281616,65.591187 C1330.851318,69.572884 1340.593018,73.140396 1350.172485,77.100021 C1352.388306,78.015930 1354.420166,79.604958 1356.230835,81.225876 C1360.082642,84.674126 1359.881226,88.344650 1356.253418,92.274971 C1337.312012,112.795235 1318.812866,133.695709 1302.357910,156.307068 C1291.522583,171.196167 1280.523804,185.976089 1270.066895,201.128265 C1259.409546,216.570770 1248.945801,232.174179 1239.081665,248.130295 C1225.132202,270.694611 1211.116211,293.267212 1198.390137,316.526489 C1180.964600,348.375153 1164.001343,380.522247 1148.184570,413.192291 C1133.503174,443.517120 1120.457642,474.640015 1106.960083,505.528656 C1101.836060,517.254456 1097.164185,529.202515 1092.899292,541.265930 C1091.348999,545.650574 1091.237793,550.655090 1091.089478,555.396179 C1090.904053,561.324463 1095.546265,565.232422 1101.094849,563.255554 C1108.125854,560.750366 1115.210815,557.822876 1121.467529,553.819275 C1146.867310,537.566345 1171.660278,520.351135 1197.268311,504.442810 C1214.451904,493.767914 1232.899292,485.278046 1252.263062,479.057251 C1254.742554,478.260712 1257.439819,476.872650 1259.770508,477.279724 C1261.671875,477.611847 1263.379272,480.074493 1264.687866,481.933685 C1264.953979,482.311707 1263.312012,484.672333 1262.114868,485.342987 C1248.049438,493.223083 1233.329102,500.084229 1219.896362,508.911102 C1193.644043,526.162170 1167.939575,544.266052 1142.351074,562.498047 C1133.921143,568.504395 1126.411743,575.844421 1118.729858,582.847107 C1110.890381,589.993530 1103.281372,597.398376 1095.706665,604.827881 C1085.367188,614.969177 1077.041382,626.540527 1070.989380,639.767395 C1069.147827,643.792297 1066.796143,647.667419 1064.161743,651.229126 C1058.110107,659.410706 1048.811157,660.275757 1039.766724,660.919556 C1025.126465,661.961792 1010.775513,659.580078 996.629761,655.988892 C993.797913,655.270020 991.043579,654.028198 988.442688,652.666138 C984.197571,650.443115 984.242310,646.312744 985.325073,642.631836 C990.190735,626.092163 994.289856,609.211304 1000.689941,593.266052 C1010.178345,569.626892 1020.287231,546.101501 1032.124146,523.574402 C1046.997803,495.267975 1063.097656,467.526245 1080.082642,440.427246 C1105.989624,399.093628 1133.110718,358.520935 1159.712402,317.622681 C1168.329102,304.375336 1177.190063,291.277130 1185.436035,277.802765 C1189.561523,271.061432 1191.631714,263.495239 1188.805176,253.574463 C1185.128418,257.318939 1182.282959,259.991943 1179.695679,262.894989 C1172.658936,270.790741 1165.759399,278.808472 1158.754639,286.732941 C1145.939453,301.230652 1133.102295,315.708832 1120.242432,330.166779 C1116.490845,334.384735 1112.691895,338.563965 1108.810059,342.661926 C1095.785278,356.411713 1082.863892,370.264008 1069.626587,383.806854 C1045.672241,408.314240 1021.851501,432.967834 997.329956,456.899445 C981.231812,472.610229 964.345154,487.566223 947.183533,502.119598 C929.086609,517.466003 910.582947,532.385559 891.599121,546.613892 C880.065613,555.258179 867.673401,562.961731 854.964600,569.778564 C840.562988,577.503357 825.300476,583.604492 808.392700,582.973083 C790.506348,582.305115 782.554077,575.234192 774.950439,560.382263 C768.723389,548.219055 766.268677,535.266418 765.975586,521.751648 C765.716492,509.801788 764.550903,497.812439 765.193237,485.916534 C766.063354,469.800995 767.573669,453.647980 770.067932,437.707977 C774.562988,408.980927 779.307434,380.257568 785.229614,351.799408 C790.812622,324.970764 798.049438,298.486359 804.553406,271.849213 C807.007141,261.799805 809.445984,251.746719 811.772949,241.302368 z" transform="matrix(1, 0, 0, 1, 1.4210854715202004e-14, 0)"/>
  <path fill="#929292" opacity="1.000000" stroke="none" d=" M586.309143,396.364807 C588.018127,383.114349 589.912476,370.284180 590.900269,357.384552 C592.023071,342.722961 593.112671,327.979065 592.730835,313.309631 C592.470703,303.314819 590.254333,293.238190 587.818298,283.471130 C585.498901,274.171783 578.131836,270.743317 569.750305,274.091125 C568.006104,274.787781 566.398621,276.589020 565.414307,278.280518 C562.640381,283.047607 562.781189,283.129517 557.646179,284.963501 C555.116211,282.962097 554.997375,280.894714 556.489624,277.855774 C563.233521,264.122406 571.912720,251.978668 584.028687,242.455124 C594.252563,234.418823 614.507996,229.734955 626.063477,239.106506 C632.567322,244.381195 636.731262,251.676971 637.859131,259.922119 C639.702881,273.401123 642.131836,287.048035 641.695251,300.539337 C640.787781,328.575226 635.229004,355.977966 624.404236,381.997345 C611.769714,412.366974 598.778198,442.592194 585.529053,472.698486 C582.824829,478.843445 578.456909,484.302856 574.487061,489.812531 C573.445740,491.257660 571.022827,491.707275 569.234375,492.614075 C568.498718,490.240662 566.825317,487.708282 567.195984,485.522491 C568.525085,477.685120 570.542480,469.964264 572.305786,462.200745 C575.870361,446.506226 579.532654,430.833038 582.958557,415.108307 C584.278503,409.050201 585.064758,402.875854 586.309143,396.364807 z" transform="matrix(1, 0, 0, 1, 1.4210854715202004e-14, 0)"/>
</svg>